<svg xmlns:xlink="http://www.w3.org/1999/xlink" xmlns="http://www.w3.org/2000/svg" aria-label="Mark as unhelpful" role="img" focusable="false" data-purpose="icon" class="udlite-icon udlite-icon-small" width="24"  height="24" ><defs><symbol id="icon-thumb-down" viewBox="0 0 24 24"><path d="M15 3H6c-.83 0-1.54.5-1.84 1.22l-3.02 7.05c-.09.23-.14.47-.14.73v2c0 1.1.9 2 2 2h6.31l-.95 4.57-.03.32c0 .41.17.79.44 1.06L9.83 23l6.59-6.59c.36-.36.58-.86.58-1.41V5c0-1.1-.9-2-2-2zm0 12l-4.34 4.34L12 14H3v-2l3-7h9v10zm4-12h4v12h-4V3z"></path></symbol></defs><use xlink:href="#icon-thumb-down" fill="#1C1D1F"></use></svg>