<svg xmlns:xlink="http://www.w3.org/1999/xlink" xmlns="http://www.w3.org/2000/svg" aria-hidden="true" focusable="false" class="udlite-icon udlite-icon-xsmall udlite-icon-color-neutral udlite-block-list-item-icon" width="24"  height="24" ><defs><symbol id="icon-certificate" viewBox="0 0 24 24"><path d="M20.39 19.37L16.38 18 15 22l-3.08-6L9 22l-1.38-4-4.01 1.37 2.92-6A6.97 6.97 0 015 9a6.999 6.999 0 1114 0c0 1.65-.57 3.17-1.53 4.37l2.92 6zM7 9l2.69 1.34-.19 3 2.5-1.66 2.5 1.65-.17-2.99L17 9l-2.68-1.35.18-2.98L12 6.31 9.5 4.65l.17 3.01L7 9z"></path></symbol></defs><use xlink:href="#icon-certificate" fill="#1C1D1F"></use></svg>